<?xml version="1.0" encoding="UTF-8" standalone="no"?>
<!DOCTYPE svg PUBLIC "-//W3C//DTD SVG 1.1//EN"
 "http://www.w3.org/Graphics/SVG/1.1/DTD/svg11.dtd">
<!-- Generated by graphviz version 2.38.0 (20140413.2041)
 -->
<!-- Title: models_diagram Pages: 1 -->
<svg width="475pt" height="601pt"
 viewBox="0.00 0.00 474.96 601.00" xmlns="http://www.w3.org/2000/svg" xmlns:xlink="http://www.w3.org/1999/xlink">
<g id="graph0" class="graph" transform="scale(1 1) rotate(0) translate(4 597)">
<title>models_diagram</title>
<polygon fill="white" stroke="none" points="-4,4 -4,-597 470.955,-597 470.955,4 -4,4"/>
<!-- _diagram_info -->
<g id="node1" class="node"><title>_diagram_info</title>
<text text-anchor="start" x="8" y="-578.6" font-family="Times,serif" font-size="13.00">Models diagram</text>
<text text-anchor="start" x="8" y="-565.6" font-family="Times,serif" font-size="13.00">Date: Mar 09 2015 &#45; 07:54</text>
<text text-anchor="start" x="8" y="-552.6" font-family="Times,serif" font-size="13.00">Migration version: 20150309115226</text>
<text text-anchor="start" x="8" y="-539.6" font-family="Times,serif" font-size="13.00">Generated by RailRoady 1.1.2</text>
<text text-anchor="start" x="8" y="-526.6" font-family="Times,serif" font-size="13.00">http://railroady.prestonlee.com</text>
</g>
<!-- Cart -->
<g id="node2" class="node"><title>Cart</title>
<path fill="none" stroke="black" d="M279.944,-274.5C279.944,-274.5 388.955,-274.5 388.955,-274.5 394.955,-274.5 400.955,-280.5 400.955,-286.5 400.955,-286.5 400.955,-348.5 400.955,-348.5 400.955,-354.5 394.955,-360.5 388.955,-360.5 388.955,-360.5 279.944,-360.5 279.944,-360.5 273.944,-360.5 267.944,-354.5 267.944,-348.5 267.944,-348.5 267.944,-286.5 267.944,-286.5 267.944,-280.5 273.944,-274.5 279.944,-274.5"/>
<text text-anchor="middle" x="334.45" y="-345.3" font-family="Times,serif" font-size="14.00">Cart</text>
<polyline fill="none" stroke="black" points="267.944,-338.5 400.955,-338.5 "/>
<text text-anchor="start" x="275.944" y="-323.3" font-family="Times,serif" font-size="14.00">id :integer</text>
<text text-anchor="start" x="275.944" y="-309.3" font-family="Times,serif" font-size="14.00">customer_id :integer</text>
<text text-anchor="start" x="275.944" y="-295.3" font-family="Times,serif" font-size="14.00">created_at :datetime</text>
<text text-anchor="start" x="275.944" y="-281.3" font-family="Times,serif" font-size="14.00">updated_at :datetime</text>
</g>
<!-- LineItem -->
<g id="node4" class="node"><title>LineItem</title>
<path fill="none" stroke="black" d="M250.944,-0.5C250.944,-0.5 359.955,-0.5 359.955,-0.5 365.955,-0.5 371.955,-6.5 371.955,-12.5 371.955,-12.5 371.955,-88.5 371.955,-88.5 371.955,-94.5 365.955,-100.5 359.955,-100.5 359.955,-100.5 250.944,-100.5 250.944,-100.5 244.944,-100.5 238.944,-94.5 238.944,-88.5 238.944,-88.5 238.944,-12.5 238.944,-12.5 238.944,-6.5 244.944,-0.5 250.944,-0.5"/>
<text text-anchor="middle" x="305.45" y="-85.3" font-family="Times,serif" font-size="14.00">LineItem</text>
<polyline fill="none" stroke="black" points="238.944,-78.5 371.955,-78.5 "/>
<text text-anchor="start" x="246.944" y="-63.3" font-family="Times,serif" font-size="14.00">id :integer</text>
<text text-anchor="start" x="246.944" y="-49.3" font-family="Times,serif" font-size="14.00">cart_id :integer</text>
<text text-anchor="start" x="246.944" y="-35.3" font-family="Times,serif" font-size="14.00">product_id :integer</text>
<text text-anchor="start" x="246.944" y="-21.3" font-family="Times,serif" font-size="14.00">created_at :datetime</text>
<text text-anchor="start" x="246.944" y="-7.3" font-family="Times,serif" font-size="14.00">updated_at :datetime</text>
</g>
<!-- Cart&#45;&gt;LineItem -->
<g id="edge1" class="edge"><title>Cart&#45;&gt;LineItem</title>
<path fill="none" stroke="#ed1ffc" d="M327.834,-266.066C326.665,-256.739 325.49,-247.079 324.45,-238 319.572,-195.44 314.687,-147.342 311.092,-110.652"/>
<ellipse fill="none" stroke="#ed1ffc" cx="328.355" cy="-270.186" rx="4.00001" ry="4.00001"/>
<polygon fill="#ed1ffc" stroke="#ed1ffc" points="311.084,-110.573 314.592,-100.183 310.599,-105.597 310.113,-100.62 310.113,-100.62 310.113,-100.62 310.599,-105.597 305.635,-101.057 311.084,-110.573 311.084,-110.573"/>
</g>
<!-- Product -->
<g id="node5" class="node"><title>Product</title>
<path fill="none" stroke="black" d="M345.944,-137.5C345.944,-137.5 454.955,-137.5 454.955,-137.5 460.955,-137.5 466.955,-143.5 466.955,-149.5 466.955,-149.5 466.955,-225.5 466.955,-225.5 466.955,-231.5 460.955,-237.5 454.955,-237.5 454.955,-237.5 345.944,-237.5 345.944,-237.5 339.944,-237.5 333.944,-231.5 333.944,-225.5 333.944,-225.5 333.944,-149.5 333.944,-149.5 333.944,-143.5 339.944,-137.5 345.944,-137.5"/>
<text text-anchor="middle" x="400.45" y="-222.3" font-family="Times,serif" font-size="14.00">Product</text>
<polyline fill="none" stroke="black" points="333.944,-215.5 466.955,-215.5 "/>
<text text-anchor="start" x="341.944" y="-200.3" font-family="Times,serif" font-size="14.00">id :integer</text>
<text text-anchor="start" x="341.944" y="-186.3" font-family="Times,serif" font-size="14.00">name :string</text>
<text text-anchor="start" x="341.944" y="-172.3" font-family="Times,serif" font-size="14.00">price :integer</text>
<text text-anchor="start" x="341.944" y="-158.3" font-family="Times,serif" font-size="14.00">created_at :datetime</text>
<text text-anchor="start" x="341.944" y="-144.3" font-family="Times,serif" font-size="14.00">updated_at :datetime</text>
</g>
<!-- Cart&#45;&gt;Product -->
<g id="edge2" class="edge"><title>Cart&#45;&gt;Product</title>
<path fill="none" stroke="#006346" d="M360.84,-265.319C363.979,-259.23 367.202,-252.98 370.388,-246.802"/>
<polygon fill="#006346" stroke="#006346" points="360.826,-265.345 352.244,-272.171 358.535,-269.789 356.243,-274.233 356.243,-274.233 356.243,-274.233 358.535,-269.789 360.243,-276.296 360.826,-265.345 360.826,-265.345"/>
<polygon fill="#006346" stroke="#006346" points="370.432,-246.716 379.015,-239.89 372.724,-242.272 375.015,-237.828 375.015,-237.828 375.015,-237.828 372.724,-242.272 371.015,-235.766 370.432,-246.716 370.432,-246.716"/>
</g>
<!-- Customer -->
<g id="node3" class="node"><title>Customer</title>
<path fill="none" stroke="black" d="M298.944,-397.5C298.944,-397.5 407.955,-397.5 407.955,-397.5 413.955,-397.5 419.955,-403.5 419.955,-409.5 419.955,-409.5 419.955,-471.5 419.955,-471.5 419.955,-477.5 413.955,-483.5 407.955,-483.5 407.955,-483.5 298.944,-483.5 298.944,-483.5 292.944,-483.5 286.944,-477.5 286.944,-471.5 286.944,-471.5 286.944,-409.5 286.944,-409.5 286.944,-403.5 292.944,-397.5 298.944,-397.5"/>
<text text-anchor="middle" x="353.45" y="-468.3" font-family="Times,serif" font-size="14.00">Customer</text>
<polyline fill="none" stroke="black" points="286.944,-461.5 419.955,-461.5 "/>
<text text-anchor="start" x="294.944" y="-446.3" font-family="Times,serif" font-size="14.00">id :integer</text>
<text text-anchor="start" x="294.944" y="-432.3" font-family="Times,serif" font-size="14.00">name :string</text>
<text text-anchor="start" x="294.944" y="-418.3" font-family="Times,serif" font-size="14.00">created_at :datetime</text>
<text text-anchor="start" x="294.944" y="-404.3" font-family="Times,serif" font-size="14.00">updated_at :datetime</text>
</g>
<!-- Customer&#45;&gt;Cart -->
<g id="edge4" class="edge"><title>Customer&#45;&gt;Cart</title>
<path fill="none" stroke="#cbec2e" d="M345.563,-389.272C344.603,-383.162 343.621,-376.908 342.657,-370.769"/>
<ellipse fill="none" stroke="#cbec2e" cx="346.184" cy="-393.228" rx="4.00001" ry="4.00001"/>
<polygon fill="#cbec2e" stroke="#cbec2e" points="342.61,-370.471 345.505,-359.894 341.835,-365.531 341.059,-360.592 341.059,-360.592 341.059,-360.592 341.835,-365.531 336.614,-361.29 342.61,-370.471 342.61,-370.471"/>
</g>
<!-- Product&#45;&gt;LineItem -->
<g id="edge7" class="edge"><title>Product&#45;&gt;LineItem</title>
<path fill="none" stroke="#5f0669" d="M361.115,-130.603C356.116,-123.5 350.993,-116.22 345.976,-109.09"/>
<ellipse fill="none" stroke="#5f0669" cx="363.582" cy="-134.109" rx="4.00002" ry="4.00002"/>
<polygon fill="#5f0669" stroke="#5f0669" points="345.904,-108.988 343.829,-98.2199 343.027,-104.899 340.149,-100.81 340.149,-100.81 340.149,-100.81 343.027,-104.899 336.469,-103.399 345.904,-108.988 345.904,-108.988"/>
</g>
<!-- ActiveRecord::Base -->
<g id="node6" class="node"><title>ActiveRecord::Base</title>
<ellipse fill="none" stroke="black" cx="306.45" cy="-556.5" rx="81.1422" ry="18"/>
<text text-anchor="middle" x="306.45" y="-552.3" font-family="Times,serif" font-size="14.00">ActiveRecord::Base</text>
</g>
<!-- ActiveRecord::Base&#45;&gt;Cart -->
<g id="edge3" class="edge"><title>ActiveRecord::Base&#45;&gt;Cart</title>
<path fill="none" stroke="black" d="M297.347,-538.45C290.345,-524.315 281.246,-503.458 277.45,-484 270.046,-446.049 265.506,-433.776 277.45,-397 281.612,-384.185 288.739,-371.713 296.571,-360.622"/>
</g>
<!-- ActiveRecord::Base&#45;&gt;Customer -->
<g id="edge5" class="edge"><title>ActiveRecord::Base&#45;&gt;Customer</title>
<path fill="none" stroke="black" d="M313.588,-538.186C319.546,-523.735 328.289,-502.529 336.07,-483.656"/>
</g>
<!-- ActiveRecord::Base&#45;&gt;LineItem -->
<g id="edge6" class="edge"><title>ActiveRecord::Base&#45;&gt;LineItem</title>
<path fill="none" stroke="black" d="M293.738,-538.618C284.069,-524.746 271.439,-504.164 265.45,-484 225.511,-349.549 264.724,-182.158 289.155,-100.669"/>
</g>
<!-- ActiveRecord::Base&#45;&gt;Product -->
<g id="edge8" class="edge"><title>ActiveRecord::Base&#45;&gt;Product</title>
<path fill="none" stroke="black" d="M352.692,-541.686C380.262,-530.797 413.005,-512.581 429.45,-484 473.796,-406.926 445.212,-299.551 421.847,-237.706"/>
</g>
</g>
</svg>
