<?xml version="1.0" encoding="UTF-8" standalone="no"?>
<!DOCTYPE svg PUBLIC "-//W3C//DTD SVG 1.1//EN"
 "http://www.w3.org/Graphics/SVG/1.1/DTD/svg11.dtd">
<!-- Generated by graphviz version 2.38.0 (20140413.2041)
 -->
<!-- Title: models_diagram Pages: 1 -->
<svg width="411pt" height="369pt"
 viewBox="0.00 0.00 410.95 369.00" xmlns="http://www.w3.org/2000/svg" xmlns:xlink="http://www.w3.org/1999/xlink">
<g id="graph0" class="graph" transform="scale(1 1) rotate(0) translate(4 365)">
<title>models_diagram</title>
<polygon fill="white" stroke="none" points="-4,4 -4,-365 406.949,-365 406.949,4 -4,4"/>
<!-- _diagram_info -->
<g id="node1" class="node"><title>_diagram_info</title>
<text text-anchor="start" x="8" y="-346.6" font-family="Times,serif" font-size="13.00">Models diagram</text>
<text text-anchor="start" x="8" y="-333.6" font-family="Times,serif" font-size="13.00">Date: Mar 09 2015 &#45; 07:54</text>
<text text-anchor="start" x="8" y="-320.6" font-family="Times,serif" font-size="13.00">Migration version: 20150309115226</text>
<text text-anchor="start" x="8" y="-307.6" font-family="Times,serif" font-size="13.00">Generated by RailRoady 1.1.2</text>
<text text-anchor="start" x="8" y="-294.6" font-family="Times,serif" font-size="13.00">http://railroady.prestonlee.com</text>
</g>
<!-- Cart -->
<g id="node2" class="node"><title>Cart</title>
<ellipse fill="none" stroke="black" cx="313.45" cy="-162" rx="27" ry="18"/>
<text text-anchor="middle" x="313.45" y="-157.8" font-family="Times,serif" font-size="14.00">Cart</text>
</g>
<!-- LineItem -->
<g id="node4" class="node"><title>LineItem</title>
<ellipse fill="none" stroke="black" cx="273.45" cy="-18" rx="42.5369" ry="18"/>
<text text-anchor="middle" x="273.45" y="-13.8" font-family="Times,serif" font-size="14.00">LineItem</text>
</g>
<!-- Cart&#45;&gt;LineItem -->
<g id="edge1" class="edge"><title>Cart&#45;&gt;LineItem</title>
<path fill="none" stroke="#8c7284" d="M302.978,-137.052C299.308,-128.058 295.376,-117.672 292.45,-108 286.283,-87.6164 281.343,-64.0247 278.047,-46.2539"/>
<ellipse fill="none" stroke="#8c7284" cx="304.564" cy="-140.852" rx="4.00002" ry="4.00002"/>
<polygon fill="#8c7284" stroke="#8c7284" points="278.023,-46.1199 280.685,-35.482 277.139,-41.1986 276.256,-36.2773 276.256,-36.2773 276.256,-36.2773 277.139,-41.1986 271.826,-37.0727 278.023,-46.1199 278.023,-46.1199"/>
</g>
<!-- Product -->
<g id="node5" class="node"><title>Product</title>
<ellipse fill="none" stroke="black" cx="339.45" cy="-90" rx="37.7352" ry="18"/>
<text text-anchor="middle" x="339.45" y="-85.8" font-family="Times,serif" font-size="14.00">Product</text>
</g>
<!-- Cart&#45;&gt;Product -->
<g id="edge2" class="edge"><title>Cart&#45;&gt;Product</title>
<path fill="none" stroke="#c07373" d="M323.193,-134.767C325.276,-129.159 327.478,-123.23 329.567,-117.608"/>
<polygon fill="#c07373" stroke="#c07373" points="323.093,-135.037 315.393,-142.844 321.352,-139.724 319.611,-144.411 319.611,-144.411 319.611,-144.411 321.352,-139.724 323.83,-145.978 323.093,-135.037 323.093,-135.037"/>
<polygon fill="#c07373" stroke="#c07373" points="329.67,-117.33 337.37,-109.523 331.411,-112.643 333.152,-107.956 333.152,-107.956 333.152,-107.956 331.411,-112.643 328.933,-106.389 329.67,-117.33 329.67,-117.33"/>
</g>
<!-- Customer -->
<g id="node3" class="node"><title>Customer</title>
<ellipse fill="none" stroke="black" cx="342.45" cy="-234" rx="44.4923" ry="18"/>
<text text-anchor="middle" x="342.45" y="-229.8" font-family="Times,serif" font-size="14.00">Customer</text>
</g>
<!-- Customer&#45;&gt;Cart -->
<g id="edge4" class="edge"><title>Customer&#45;&gt;Cart</title>
<path fill="none" stroke="#7159a8" d="M332.271,-208.431C329.696,-202.214 326.92,-195.514 324.312,-189.22"/>
<ellipse fill="none" stroke="#7159a8" cx="333.899" cy="-212.36" rx="4.00001" ry="4.00001"/>
<polygon fill="#7159a8" stroke="#7159a8" points="324.233,-189.028 324.563,-178.067 322.319,-184.408 320.405,-179.789 320.405,-179.789 320.405,-179.789 322.319,-184.408 316.248,-181.511 324.233,-189.028 324.233,-189.028"/>
</g>
<!-- Product&#45;&gt;LineItem -->
<g id="edge7" class="edge"><title>Product&#45;&gt;LineItem</title>
<path fill="none" stroke="#94b5c6" d="M318.972,-67.2809C311.673,-59.5393 303.414,-50.7799 295.954,-42.8677"/>
<ellipse fill="none" stroke="#94b5c6" cx="321.729" cy="-70.2055" rx="4.00002" ry="4.00002"/>
<polygon fill="#94b5c6" stroke="#94b5c6" points="295.685,-42.5829 292.099,-32.2199 292.255,-38.945 288.825,-35.307 288.825,-35.307 288.825,-35.307 292.255,-38.945 285.551,-38.3941 295.685,-42.5829 295.685,-42.5829"/>
</g>
<!-- ActiveRecord::Base -->
<g id="node6" class="node"><title>ActiveRecord::Base</title>
<ellipse fill="none" stroke="black" cx="306.45" cy="-324.5" rx="81.1422" ry="18"/>
<text text-anchor="middle" x="306.45" y="-320.3" font-family="Times,serif" font-size="14.00">ActiveRecord::Base</text>
</g>
<!-- ActiveRecord::Base&#45;&gt;Cart -->
<g id="edge3" class="edge"><title>ActiveRecord::Base&#45;&gt;Cart</title>
<path fill="none" stroke="black" d="M299.817,-306.262C292.507,-284.938 282.632,-247.583 289.45,-216 292.263,-202.967 298.556,-189.283 303.992,-179.085"/>
</g>
<!-- ActiveRecord::Base&#45;&gt;Customer -->
<g id="edge5" class="edge"><title>ActiveRecord::Base&#45;&gt;Customer</title>
<path fill="none" stroke="black" d="M313.391,-306.436C319.766,-290.765 329.162,-267.666 335.53,-252.011"/>
</g>
<!-- ActiveRecord::Base&#45;&gt;LineItem -->
<g id="edge6" class="edge"><title>ActiveRecord::Base&#45;&gt;LineItem</title>
<path fill="none" stroke="black" d="M299.374,-306.497C293.766,-292.216 286.26,-271.134 282.45,-252 266.635,-172.596 270.038,-75.049 272.283,-36.1716"/>
</g>
<!-- ActiveRecord::Base&#45;&gt;Product -->
<g id="edge8" class="edge"><title>ActiveRecord::Base&#45;&gt;Product</title>
<path fill="none" stroke="black" d="M338.21,-307.652C358.688,-295.514 383.627,-276.664 395.45,-252 419.883,-201.029 376.685,-136.495 353.173,-107.009"/>
</g>
</g>
</svg>
